<svg width="120" height="60" viewBox="0 0 120 60" fill="none" xmlns="http://www.w3.org/2000/svg">
<path d="M28.6903 27.4602C28.5795 27.0085 28.4048 26.6122 28.1662 26.2713C27.9276 25.9219 27.6293 25.6278 27.2713 25.3892C26.9219 25.142 26.5128 24.9588 26.044 24.8395C25.5838 24.7116 25.0767 24.6477 24.5227 24.6477C23.3295 24.6477 22.3111 24.9332 21.4673 25.5043C20.6321 26.0753 19.9929 26.8977 19.5497 27.9716C19.1151 29.0455 18.8977 30.3409 18.8977 31.858C18.8977 33.392 19.1065 34.7045 19.5241 35.7955C19.9418 36.8864 20.5639 37.7216 21.3906 38.3011C22.2173 38.8807 23.2443 39.1705 24.4716 39.1705C25.554 39.1705 26.4531 39.0128 27.169 38.6974C27.8935 38.3821 28.4347 37.9347 28.7926 37.3551C29.1506 36.7756 29.3295 36.0937 29.3295 35.3097L30.5568 35.4375H24.5739V30.375H36.1818V34.0057C36.1818 36.392 35.6747 38.4332 34.6605 40.1293C33.6548 41.8168 32.2656 43.1122 30.4929 44.0156C28.7287 44.9105 26.7045 45.358 24.4205 45.358C21.8722 45.358 19.6349 44.8168 17.7088 43.7344C15.7827 42.652 14.2784 41.1094 13.196 39.1065C12.1222 37.1037 11.5852 34.7216 11.5852 31.9602C11.5852 29.7955 11.9134 27.8778 12.5696 26.2074C13.2344 24.5369 14.1548 23.1264 15.331 21.9759C16.5071 20.8168 17.8665 19.9432 19.4091 19.3551C20.9517 18.7585 22.6051 18.4602 24.3693 18.4602C25.9205 18.4602 27.3608 18.6818 28.6903 19.125C30.0284 19.5597 31.2088 20.1818 32.2315 20.9915C33.2628 21.7926 34.0938 22.7429 34.7244 23.8423C35.3551 24.9418 35.7386 26.1477 35.875 27.4602H28.6903ZM49.0586 45.358C46.9279 45.358 45.104 44.9361 43.587 44.0923C42.07 43.2401 40.9066 42.0554 40.0969 40.5384C39.2873 39.0128 38.8825 37.2443 38.8825 35.233C38.8825 33.2216 39.2873 31.4574 40.0969 29.9403C40.9066 28.4148 42.07 27.2301 43.587 26.3864C45.104 25.5341 46.9279 25.108 49.0586 25.108C51.1893 25.108 53.0131 25.5341 54.5302 26.3864C56.0472 27.2301 57.2106 28.4148 58.0202 29.9403C58.8299 31.4574 59.2347 33.2216 59.2347 35.233C59.2347 37.2443 58.8299 39.0128 58.0202 40.5384C57.2106 42.0554 56.0472 43.2401 54.5302 44.0923C53.0131 44.9361 51.1893 45.358 49.0586 45.358ZM49.1097 40.142C49.7063 40.142 50.2219 39.9418 50.6566 39.5412C51.0913 39.1406 51.4279 38.5696 51.6665 37.8281C51.9052 37.0866 52.0245 36.2045 52.0245 35.1818C52.0245 34.1506 51.9052 33.2685 51.6665 32.5355C51.4279 31.794 51.0913 31.223 50.6566 30.8224C50.2219 30.4219 49.7063 30.2216 49.1097 30.2216C48.479 30.2216 47.9379 30.4219 47.4862 30.8224C47.0344 31.223 46.6893 31.794 46.4506 32.5355C46.212 33.2685 46.0927 34.1506 46.0927 35.1818C46.0927 36.2045 46.212 37.0866 46.4506 37.8281C46.6893 38.5696 47.0344 39.1406 47.4862 39.5412C47.9379 39.9418 48.479 40.142 49.1097 40.142ZM73.8086 25.3636V30.4773H60.8711V25.3636H73.8086ZM63.3768 20.6591H70.4336V38.6847C70.4336 38.9574 70.4805 39.1875 70.5742 39.375C70.668 39.554 70.8129 39.6903 71.0089 39.7841C71.2049 39.8693 71.4563 39.9119 71.7631 39.9119C71.9762 39.9119 72.2234 39.8864 72.5046 39.8352C72.7944 39.7841 73.0075 39.7415 73.1438 39.7074L74.1665 44.6676C73.8512 44.7614 73.3995 44.8764 72.8114 45.0128C72.2319 45.1491 71.5415 45.2386 70.7404 45.2812C69.1211 45.3665 67.7617 45.2003 66.6623 44.7827C65.5629 44.3565 64.7362 43.6875 64.1822 42.7756C63.6282 41.8636 63.3597 40.7216 63.3768 39.3494V20.6591ZM112.305 25.3636V30.4773H99.3672V25.3636H112.305ZM101.873 20.6591H108.93V38.6847C108.93 38.9574 108.977 39.1875 109.07 39.375C109.164 39.554 109.309 39.6903 109.505 39.7841C109.701 39.8693 109.952 39.9119 110.259 39.9119C110.472 39.9119 110.719 39.8864 111.001 39.8352C111.29 39.7841 111.504 39.7415 111.64 39.7074L112.663 44.6676C112.347 44.7614 111.896 44.8764 111.308 45.0128C110.728 45.1491 110.038 45.2386 109.237 45.2812C107.617 45.3665 106.258 45.2003 105.158 44.7827C104.059 44.3565 103.232 43.6875 102.678 42.7756C102.124 41.8636 101.856 40.7216 101.873 39.3494V20.6591Z" fill="#2C3E50"/>
<path d="M88.8204 13.9004L93.2148 34.4501L86.6211 36.1168L80.7228 15.9472L88.8204 13.9004ZM92.3742 45.0005C91.2559 45.2832 90.1981 45.1352 89.2006 44.5566C88.2103 43.966 87.5774 43.1055 87.302 41.9752C87.0145 40.8786 87.1674 39.8401 87.7605 38.8594C88.3632 37.8763 89.2237 37.2435 90.3419 36.9608C91.4023 36.6927 92.4361 36.8468 93.4432 37.423C94.46 37.9967 95.1121 38.8318 95.3995 39.9283C95.58 40.6827 95.5553 41.4171 95.3257 42.1315C95.1033 42.8338 94.7347 43.4449 94.2199 43.9648C93.7028 44.475 93.0875 44.8202 92.3742 45.0005Z" fill="#2E86DE"/>
</svg>
